<svg xmlns="http://www.w3.org/2000/svg" viewBox="0 0 69.44 64.72"><defs><style>.a,.b{fill:#1d1d1b;}.a{stroke:#fff;stroke-miterlimit:10;stroke-width:2.22px;}</style></defs><polygon class="a" points="35.15 61.71 41.09 55.78 41.09 42.92 35.15 42.92 35.15 61.71"/><path class="a" d="M35.8,35.18H47.53a10.83,10.83,0,0,0,8-10.1A7.23,7.23,0,0,1,49,29.24H41.73Z"/><path class="a" d="M61.21,25.45v-.24c0-.52.07-1.05.07-1.59a16.49,16.49,0,0,0-9-14.74H42v5.93h7A7.23,7.23,0,0,1,56.17,22c0,.1,0,.2,0,.31a11.47,11.47,0,0,1,.26,2.41,11.74,11.74,0,0,1-8.7,11.32h-13a.44.44,0,0,1-.32-.13h0a.46.46,0,0,1-.13-.32V2.69L28.32,8.62V62.35h5.93V42.47A.46.46,0,0,1,34.7,42h10A16.59,16.59,0,0,0,61.21,25.45Z"/><path class="a" d="M48.38,2H35.15V34.53l5.94-5.93V8.43A.46.46,0,0,1,41.54,8H52.4l.1,0,.08,0h0a17.4,17.4,0,0,1,9.6,15.6c0,.55,0,1.1-.08,1.63h0v.2a17.27,17.27,0,0,1-3.24,10.09,16.6,16.6,0,0,0,9.35-14.89c0-.54,0-1.06-.07-1.58A20.12,20.12,0,0,0,48.38,2Z"/><path class="a" d="M57.67,37.05a17.63,17.63,0,0,1-2.91,2.61L64,61.91l4.17-5.44L59.72,36.13A16.43,16.43,0,0,1,57.67,37.05Z"/><path class="a" d="M48.52,42.47l8.26,19.88H63.2L54,40.18A17.21,17.21,0,0,1,48.52,42.47Z"/><polygon class="a" points="7.04 3.01 1.11 8.94 1.11 62.67 7.04 62.67 7.04 3.01"/><path class="a" d="M13.88,32.71h0V17.31h0s0,0,0-.05a.53.53,0,0,1,0-.12l0-.06A.56.56,0,0,1,14,17l.09-.06.05,0h0a.18.18,0,0,1,.1,0l.07,0h.07l.11,0,.07.05.07.05a.31.31,0,0,1,.07.09l0,.05L27.4,45.59V29.05L14.06,2.36H8V62l5.93-5.93Z"/><path class="a" d="M14.79,32.6,28.15,62.68h6.09V3L28.31,8.94V47.73h0s0,0,0,.06a.36.36,0,0,1,0,.11.43.43,0,0,1,0,.07.35.35,0,0,1-.14.14l-.06,0h0a.58.58,0,0,1-.18,0,.44.44,0,0,1-.22-.07s0,0-.05,0a.36.36,0,0,1-.14-.16h0L14.79,19.44Z"/><polygon class="b" points="35.15 61.71 41.09 55.78 41.09 42.92 35.15 42.92 35.15 61.71"/><path class="b" d="M35.8,35.18H47.53a10.83,10.83,0,0,0,8-10.1A7.23,7.23,0,0,1,49,29.24H41.73Z"/><path class="b" d="M61.21,25.45v-.24c0-.52.07-1.05.07-1.59a16.49,16.49,0,0,0-9-14.74H42v5.93h7A7.23,7.23,0,0,1,56.17,22c0,.1,0,.2,0,.31a11.47,11.47,0,0,1,.26,2.41,11.74,11.74,0,0,1-8.7,11.32h-13a.44.44,0,0,1-.32-.13h0a.46.46,0,0,1-.13-.32V2.69L28.32,8.62V62.35h5.93V42.47A.46.46,0,0,1,34.7,42h10A16.59,16.59,0,0,0,61.21,25.45Z"/><path class="b" d="M48.38,2H35.15V34.53l5.94-5.93V8.43A.46.46,0,0,1,41.54,8H52.4l.1,0,.08,0h0a17.4,17.4,0,0,1,9.6,15.6c0,.55,0,1.1-.08,1.63h0v.2a17.27,17.27,0,0,1-3.24,10.09,16.6,16.6,0,0,0,9.35-14.89c0-.54,0-1.06-.07-1.58A20.12,20.12,0,0,0,48.38,2Z"/><path class="b" d="M57.67,37.05a17.63,17.63,0,0,1-2.91,2.61L64,61.91l4.17-5.44L59.72,36.13A16.43,16.43,0,0,1,57.67,37.05Z"/><path class="b" d="M48.52,42.47l8.26,19.88H63.2L54,40.18A17.21,17.21,0,0,1,48.52,42.47Z"/><polygon class="b" points="7.04 3.01 1.11 8.94 1.11 62.67 7.04 62.67 7.04 3.01"/><path class="b" d="M13.88,32.71h0V17.31h0s0,0,0-.05a.53.53,0,0,1,0-.12l0-.06A.56.56,0,0,1,14,17l.09-.06.05,0h0a.18.18,0,0,1,.1,0l.07,0h.07l.11,0,.07.05.07.05a.31.31,0,0,1,.07.09l0,.05L27.4,45.59V29.05L14.06,2.36H8V62l5.93-5.93Z"/><path class="b" d="M14.79,32.6,28.15,62.68h6.09V3L28.31,8.94V47.73h0s0,0,0,.06a.36.36,0,0,1,0,.11.43.43,0,0,1,0,.07.35.35,0,0,1-.14.14l-.06,0h0a.58.58,0,0,1-.18,0,.44.44,0,0,1-.22-.07s0,0-.05,0a.36.36,0,0,1-.14-.16h0L14.79,19.44Z"/></svg>